<svg id="Layer_1" data-name="Layer 1" xmlns="http://www.w3.org/2000/svg" viewBox="0 0 197.04 40.73"><defs><style>.cls-1{fill:#0c743b;}</style></defs><title>Artboard 1</title><path class="cls-1" d="M15.54,3.86H22l-.72-.14-.79-.13-2-.09a11.56,11.56,0,0,0-1.4.07,6.15,6.15,0,0,0-1.52.29ZM10.9,6H26.3a4.08,4.08,0,0,0-.43-.36c-.16-.11-.37-.26-.63-.42a6.58,6.58,0,0,0-1.18-.67H13.32A9.84,9.84,0,0,0,10.9,6ZM8.79,8.24H28.17l-.54-.79-.24-.29a4.83,4.83,0,0,0-.33-.37H10l-.65.69-.59.76Zm-1.2,2.22h8.77A2.81,2.81,0,0,1,17.87,10a2.07,2.07,0,0,1,1.39.47h9.8A15.2,15.2,0,0,0,28.56,9H8.3a10.32,10.32,0,0,0-.71,1.48Zm12.64,2.21h9.09v-.59l0-.24v-.3l-.07-.35H19.88a4.42,4.42,0,0,1,.22.7l.13.78Zm-8.22,0h2.9a4.82,4.82,0,0,1,.67-1.48h-7L12,12.67Zm2.61.74h-.89l.79.34a.67.67,0,0,1,.1-.34Zm5,1.44h9.21c.19-.59.32-1.07.4-1.44h-9a3.21,3.21,0,0,1-.58,1.44Zm-6,2.22h13.6l.68-.74.3-.39.25-.37H18.71a7.6,7.6,0,0,1-1.86.42l-3.24,0v1.05Zm0,2.19h12.3l-1.43-.53.67-.31.56-.27.54-.34H13.61v1.45Zm0,2.24h15.3l-.28-.38-.48-.49-.43-.38L27.31,20H13.61v1.5Zm6.83,2.25h9.5L29.69,23l-.17-.44-.15-.3H22.61c-.53,0-1.05,0-1.58,0l-1.64,0-.84.15a2.84,2.84,0,0,1,1.89,1.29Zm.4,2.15h9.32v-.83a1.91,1.91,0,0,0-.08-.59H20.72l.12.76v.66Zm-9.54,0h3l-.3-.64-.24-.52L11.3,25.9Zm8.44,2.19h10.1l.12-.6.15-.85H20.72a1.75,1.75,0,0,1-.5,1l-.48.49ZM7,28.09h8.82l-.63-.69-.2-.27-.29-.49H9.77L6.93,28l0,.1Zm1.37,2.19H28.78l.45-.76.34-.69H7.38l.47.73.26.43.23.29Zm1.93,2.18H26.65l1-.88.58-.56H8.89l.66.73.72.71Zm4.18,2.21c5.24,0,8.31-.2,9.24-.6l1-.45a8.63,8.63,0,0,0,.83-.44H11.22l.64.38,1,.53a4.83,4.83,0,0,0,1.6.58Zm17.72,0H51.75V33.18H32.17v1.49Zm0-28.88h9.09V4.39H32.17v1.4Zm0,2.24h9.09V6.53H32.17V8Zm0,2.26h9.09V8.78H32.17v1.51Zm0,2.23h9.09V11H32.17v1.5Zm0,2.26h9.09V13.26H32.17v1.52Zm0,2.26h9.09V15.52H32.17V17Zm0,2.14h9.09V17.76H32.17v1.42Zm0,2.24h9.09v-1.5H32.17v1.5Zm0,2.14h9.09V22.14H32.17v1.42Zm0,2.24h9.09V24.3H32.17v1.5Zm0,2.24h9.09V26.52H32.17V28Zm0,2.24H51.75v-1.5H32.17v1.5Zm0,2.18H51.75V31H32.17v1.44Z"/><path class="cls-1" d="M64.49,13.4a2.88,2.88,0,0,1,.57,1.77,3.29,3.29,0,0,1-1.29,2.88,5.35,5.35,0,0,1-3.22.92h-4.3V6.06H60a5.46,5.46,0,0,1,3.23.84,2.78,2.78,0,0,1,1.18,2.41A3.41,3.41,0,0,1,64,11a3,3,0,0,1-1.14,1.17A4.09,4.09,0,0,1,64.49,13.4ZM58.8,11.34h1.54a1.38,1.38,0,0,0,1.09-.43,1.5,1.5,0,0,0,.38-1.06,1.19,1.19,0,0,0-.43-1,1.93,1.93,0,0,0-1.21-.34H58.8Zm3.08,4.9a1.19,1.19,0,0,0,.55-1.07c0-.92-.73-1.37-2.18-1.37H58.8v2.8h1.63A2.62,2.62,0,0,0,61.88,16.24Z"/><path class="cls-1" d="M73.55,16.45H69.27l-1,2.52H65.71L71.53,5.55h.14L77.49,19H74.55Zm-.84-2.14-1.25-3.14-1.3,3.14Z"/><path class="cls-1" d="M78.59,9.26A6.66,6.66,0,0,1,81,6.83a6.4,6.4,0,0,1,6.58,0A6.79,6.79,0,0,1,90,9.26a6.45,6.45,0,0,1,0,6.57,6.71,6.71,0,0,1-2.42,2.4,6.61,6.61,0,0,1-6.59,0,6.63,6.63,0,0,1-2.39-2.4,6.57,6.57,0,0,1,0-6.57Zm2.28,5.34a4,4,0,0,0,3.5,2.06,3.68,3.68,0,0,0,2-.56,3.72,3.72,0,0,0,1.4-1.49,4.5,4.5,0,0,0,0-4.18,4,4,0,0,0-1.43-1.5,3.95,3.95,0,0,0-4,0,4,4,0,0,0-1.43,1.5,4.26,4.26,0,0,0-.52,2.11A4.08,4.08,0,0,0,80.87,14.6Z"/><path class="cls-1" d="M107.37,13.4a2.88,2.88,0,0,1,.57,1.77,3.29,3.29,0,0,1-1.29,2.88,5.34,5.34,0,0,1-3.21.92h-4.3V6.06h3.79a5.45,5.45,0,0,1,3.22.84,2.75,2.75,0,0,1,1.18,2.41,3.52,3.52,0,0,1-.4,1.69,3,3,0,0,1-1.14,1.17A4.13,4.13,0,0,1,107.37,13.4Zm-5.69-2.06h1.54a1.38,1.38,0,0,0,1.09-.43,1.51,1.51,0,0,0,.39-1.06,1.19,1.19,0,0,0-.44-1,1.91,1.91,0,0,0-1.21-.34h-1.37Zm3.08,4.9a1.17,1.17,0,0,0,.55-1.07c0-.92-.72-1.37-2.17-1.37h-1.46v2.8h1.63A2.62,2.62,0,0,0,104.76,16.24Z"/><path class="cls-1" d="M111.22,2.78l1.09,2.37h-1.49L108.5,2.78ZM113,6.06V19h-2.54V6.06Z"/><path class="cls-1" d="M128.45,16.45h-4.28L123.11,19h-2.5l5.82-13.42h.14L132.39,19h-2.94Zm-.85-2.14-1.24-3.14-1.3,3.14Zm-.43-9.44h-1.5L127,2.5h2.72Z"/><path class="cls-1" d="M148.09,18.71a6.52,6.52,0,0,1-2.33.4,6.82,6.82,0,0,1-3.51-.87A6,6,0,0,1,140,15.88a6.8,6.8,0,0,1-.79-3.26A7.42,7.42,0,0,1,140,9.15a5.84,5.84,0,0,1,2.21-2.38,6.33,6.33,0,0,1,3.28-.85,7.16,7.16,0,0,1,2.17.32,7.5,7.5,0,0,1,1.76.79l-1,2.4a4.67,4.67,0,0,0-2.84-1,3.43,3.43,0,0,0-1.85.54,4,4,0,0,0-1.36,1.48,4.3,4.3,0,0,0-.51,2.08,4.9,4.9,0,0,0,.47,2.19,3.59,3.59,0,0,0,1.35,1.46,3.94,3.94,0,0,0,2,.53,4.61,4.61,0,0,0,1.71-.31,3.66,3.66,0,0,0,1.19-.73l1.05,2.28A5.79,5.79,0,0,1,148.09,18.71Z"/><path class="cls-1" d="M163.05,19h-2.54V13.73h-5.77V19h-2.55V6.06h2.55v5.21h5.77V6.06h2.54Z"/><path class="cls-1" d="M172.77,16.45h-4.28L167.44,19h-2.51l5.82-13.42h.14L176.71,19h-2.94Zm-1-11.79-1.14-1.09-1,1.09h-2.21l3.25-3.23h0L174,4.66Zm.18,9.65-1.25-3.14-1.3,3.14Z"/><path class="cls-1" d="M180.8,15.38a3,3,0,0,0,1,.91,2.66,2.66,0,0,0,1.32.35,2.83,2.83,0,0,0,2.37-1.26,2.17,2.17,0,0,0,.36-1.18V6.06h2.51v8.19a4.55,4.55,0,0,1-.7,2.5,4.83,4.83,0,0,1-1.9,1.74,5.71,5.71,0,0,1-2.64.62,5.64,5.64,0,0,1-2.63-.62,4.74,4.74,0,0,1-1.89-1.74,4.63,4.63,0,0,1-.69-2.5V6.06h2.54V14.2A2.1,2.1,0,0,0,180.8,15.38Z"/><path class="cls-1" d="M63.86,34.09a.52.52,0,0,1-.58.58.55.55,0,0,1-.56-.4l-.83-2.5H57.71l-.83,2.5a.54.54,0,0,1-.55.4.51.51,0,0,1-.58-.58,1.11,1.11,0,0,1,0-.19l3.45-10.35a.6.6,0,0,1,.58-.47.57.57,0,0,1,.57.45L63.83,33.9A.58.58,0,0,1,63.86,34.09ZM59.8,25.5l-1.7,5.11h3.4Z"/><path class="cls-1" d="M73.12,31.77a2.75,2.75,0,0,1-.85,2,2.79,2.79,0,0,1-2,.86,6.11,6.11,0,0,1-3.8-1.27.57.57,0,0,1-.26-.47.57.57,0,0,1,.17-.41.58.58,0,0,1,.41-.17.68.68,0,0,1,.33.1,16.17,16.17,0,0,0,1.6.81,4.58,4.58,0,0,0,1.55.25A1.64,1.64,0,0,0,71.45,33,1.68,1.68,0,0,0,72,31.77a1.62,1.62,0,0,0-1-1.55l-3.26-1.67A2.71,2.71,0,0,1,66.17,26a2.9,2.9,0,0,1,2.9-2.9,6.29,6.29,0,0,1,3.13.63.6.6,0,0,1,.34.53.53.53,0,0,1-.17.41.57.57,0,0,1-.41.17.69.69,0,0,1-.24-.06,7.18,7.18,0,0,0-2.65-.52A1.74,1.74,0,0,0,67.33,26a1.61,1.61,0,0,0,1,1.54l3.25,1.67A2.7,2.7,0,0,1,73.12,31.77Z"/><path class="cls-1" d="M76,34.67a.51.51,0,0,1-.58-.58V23.66a.58.58,0,1,1,1.16,0V34.09A.52.52,0,0,1,76,34.67Z"/><path class="cls-1" d="M87,34.09a.51.51,0,0,1-.58.58.54.54,0,0,1-.55-.4l-.83-2.5H80.88l-.83,2.5a.55.55,0,0,1-.56.4.52.52,0,0,1-.58-.58.58.58,0,0,1,0-.19l3.45-10.35a.59.59,0,0,1,.58-.47.57.57,0,0,1,.57.45L87,33.9A1.11,1.11,0,0,1,87,34.09ZM83,25.5l-1.7,5.11h3.4Z"/><path class="cls-1" d="M89.92,23.08h2.89a3.48,3.48,0,0,1,3.48,3.48A3.31,3.31,0,0,1,92.81,30H90.5v4.06a.58.58,0,0,1-1.16,0V23.66A.51.51,0,0,1,89.92,23.08Zm.58,1.16v4.63h2.31a2.24,2.24,0,0,0,1.65-.67,2.2,2.2,0,0,0,.67-1.64,2.29,2.29,0,0,0-2.32-2.32Z"/><path class="cls-1" d="M106.71,34.09a.51.51,0,0,1-.58.58.54.54,0,0,1-.55-.4l-.83-2.5h-4.18l-.83,2.5a.55.55,0,0,1-.56.4.51.51,0,0,1-.57-.58.58.58,0,0,1,0-.19l3.45-10.35a.6.6,0,0,1,.58-.47.57.57,0,0,1,.57.45l3.46,10.37A1.11,1.11,0,0,1,106.71,34.09Zm-4-8.59L101,30.61h3.4Z"/><path class="cls-1" d="M114.24,23.08a.58.58,0,0,1,0,1.16h-2.31a1.68,1.68,0,0,0-1.24.51,1.71,1.71,0,0,0-.5,1.23v5.79a1.74,1.74,0,0,0,1.74,1.74h2.31a.58.58,0,0,1,0,1.16h-2.31a2.9,2.9,0,0,1-2.9-2.9V26a2.9,2.9,0,0,1,2.9-2.9Z"/><path class="cls-1" d="M119.8,28.61l-1.5,1.65v3.83a.58.58,0,0,1-1.16,0V23.66a.58.58,0,1,1,1.16,0v4.87l4.77-5.25a.57.57,0,0,1,.44-.2.51.51,0,0,1,.58.58.57.57,0,0,1-.16.4l-3.31,3.64L124,33.8a.6.6,0,0,1,.08.29.57.57,0,0,1-.18.4.55.55,0,0,1-.4.18.56.56,0,0,1-.52-.31Z"/><path class="cls-1" d="M127,34.67a.52.52,0,0,1-.58-.58V23.66a.58.58,0,1,1,1.16,0V34.09A.51.51,0,0,1,127,34.67Z"/><path class="cls-1" d="M135.67,31.85V23.66a.58.58,0,1,1,1.16,0V34.09a.51.51,0,0,1-.58.58.55.55,0,0,1-.51-.29L131,25.89v8.2a.58.58,0,0,1-1.16,0V23.66a.51.51,0,0,1,.58-.58.58.58,0,0,1,.53.35Z"/><path class="cls-1" d="M142,33.51h2.9V28.87h-1.16a.58.58,0,1,1,0-1.15h1.74a.51.51,0,0,1,.58.58v5.79a.52.52,0,0,1-.58.58H142a2.89,2.89,0,0,1-2.89-2.9V26a2.89,2.89,0,0,1,2.89-2.9h3.48a.58.58,0,1,1,0,1.16H142A1.74,1.74,0,0,0,140.3,26v5.79a1.64,1.64,0,0,0,.51,1.23A1.68,1.68,0,0,0,142,33.51Z"/><path class="cls-1" d="M160.58,23.08a.58.58,0,0,1,0,1.16h-2.32a1.64,1.64,0,0,0-1.23.51,1.68,1.68,0,0,0-.51,1.23v5.79a1.74,1.74,0,0,0,1.74,1.74h2.32a.58.58,0,0,1,0,1.16h-2.32a2.9,2.9,0,0,1-2.9-2.9V26a2.9,2.9,0,0,1,2.9-2.9Z"/><path class="cls-1" d="M170.42,31.19a3.48,3.48,0,1,1-6.95,0V26.56a3.48,3.48,0,1,1,6.95,0Zm-1.16,0V26.56a2.24,2.24,0,0,0-.67-1.65,2.22,2.22,0,0,0-1.64-.67,2.29,2.29,0,0,0-2.32,2.32v4.63a2.24,2.24,0,0,0,.67,1.65,2.28,2.28,0,0,0,1.65.67,2.29,2.29,0,0,0,2.31-2.32Z"/><path class="cls-1" d="M177.6,29.79l2,4a.72.72,0,0,1,.07.27.55.55,0,0,1-.18.4.53.53,0,0,1-.4.18.55.55,0,0,1-.53-.33L176.42,30H173.9v4.06a.58.58,0,1,1-1.16,0V23.66a.51.51,0,0,1,.58-.58h2.89a3.48,3.48,0,0,1,3.48,3.48A3.18,3.18,0,0,1,177.6,29.79Zm-3.7-5.55v4.63h2.31a2.24,2.24,0,0,0,1.65-.67,2.2,2.2,0,0,0,.67-1.64,2.29,2.29,0,0,0-2.32-2.32Z"/><path class="cls-1" d="M182.58,23.08h2.9A3.47,3.47,0,0,1,189,26.56,3.29,3.29,0,0,1,185.48,30h-2.32v4.06a.58.58,0,0,1-1.16,0V23.66A.52.52,0,0,1,182.58,23.08Zm.58,1.16v4.63h2.32a2.3,2.3,0,0,0,2.32-2.31,2.25,2.25,0,0,0-.68-1.65,2.2,2.2,0,0,0-1.64-.67Z"/></svg>